<?xml version="1.0"?><svg xmlns="http://www.w3.org/2000/svg" width="300" height="300"><g stroke-width="3" stroke="#1c3c8b"> <path d="M0 150 H40 M300 150 H260 M150 0 V40 M150 300 V260"/><path d="M52 150 L127.799 172.889 L150 248 L172.861 172.837 L248 150 L172.861 127.776 L150 52 L127.800 127.776 Z"  fill="none"/></g><g fill="#1c3c8b"><path d="M52 150 H150 L127.799 172.889 Z M150 150 H248 L172.702 127.828 Z M150 150 V248 L172.702 172.889 Z M150 150 V52 L127.799 127.828 Z" fill="#1c3c8b" /><path transform="translate(-161.65499,-324.35278)" d="M 299.8526,548.99067 C 267.60411,543.82659 242.15172,518.37419 236.98762,486.12572 L 242.55462,487.80631 C 248.08297,515.79931 270.17897,537.89534 298.172,543.4237 L 299.8526,548.99067 z M 324.06373,548.99067 L 325.74433,543.37117 C 353.71757,537.82333 375.8288,515.77949 381.36171,487.80631 L 386.92871,486.12572 C 381.75989,518.35703 356.29535,543.80774 324.06373,548.99067 z M 236.98762,461.86206 C 242.18939,429.65483 267.63845,404.21566 299.8526,399.04961 L 298.172,404.66913 C 270.21985,410.20143 248.17108,432.23522 242.60714,460.18146 L 236.98762,461.86206 z M 386.92871,461.86206 L 381.30919,460.18146 C 375.74351,432.26922 353.70909,410.23477 325.79685,404.66913 L 324.11626,399.04961 C 356.28914,404.25337 381.72495,429.68914 386.92871,461.86206 z"
/></g></svg>
