<?xml version="1.0" encoding="UTF-8" standalone="no"?>
<!-- Created with Inkscape (http://www.inkscape.org/) -->

<svg
   xmlns:dc="http://purl.org/dc/elements/1.1/"
   xmlns:cc="http://creativecommons.org/ns#"
   xmlns:rdf="http://www.w3.org/1999/02/22-rdf-syntax-ns#"
   xmlns:svg="http://www.w3.org/2000/svg"
   xmlns="http://www.w3.org/2000/svg"
   xmlns:sodipodi="http://sodipodi.sourceforge.net/DTD/sodipodi-0.dtd"
   xmlns:inkscape="http://www.inkscape.org/namespaces/inkscape"
   version="1.0"
   x="0.00000000"
   y="0.00000000"
   width="600"
   height="300"
   id="svg2"
   sodipodi:version="0.32"
   inkscape:version="0.92.4 (5da689c313, 2019-01-14)"
   sodipodi:docname="compass_oriented.svg"
   inkscape:label="napisy"
   inkscape:export-filename="D:\GitHub\Datsville\helper_scripts\high_resolution\compass_oriented.png"
   inkscape:export-xdpi="24"
   inkscape:export-ydpi="24">
  <metadata
     id="metadata36">
    <rdf:RDF>
      <cc:Work
         rdf:about="">
        <dc:format>image/svg+xml</dc:format>
        <dc:type
           rdf:resource="http://purl.org/dc/dcmitype/StillImage" />
        <dc:title />
        <dc:title />
      </cc:Work>
    </rdf:RDF>
  </metadata>
  <sodipodi:namedview
     inkscape:window-height="1171"
     inkscape:window-width="1842"
     inkscape:pageshadow="2"
     inkscape:pageopacity="0.0"
     borderopacity="1.0"
     bordercolor="#666666"
     pagecolor="#ffffff"
     id="base"
     inkscape:zoom="1.1775672"
     inkscape:cx="208.1472"
     inkscape:cy="64.002333"
     inkscape:window-x="69"
     inkscape:window-y="-9"
     inkscape:current-layer="layer5"
     showgrid="false"
     inkscape:pagecheckerboard="true"
     inkscape:window-maximized="1" />
  <defs
     id="defs4" />
  <g
     inkscape:groupmode="layer"
     id="layer7"
     inkscape:label="p4"
     style="display:inline"
     transform="translate(0,-300)" />
  <g
     style="display:inline"
     id="layer3"
     transform="translate(0,-300)" />
  <g
     style="display:inline"
     id="layer4"
     transform="translate(0,-300)" />
  <g
     inkscape:groupmode="layer"
     id="layer1"
     inkscape:label="p3"
     style="display:inline"
     transform="translate(0,-300)" />
  <g
     inkscape:groupmode="layer"
     id="layer6"
     inkscape:label="p2"
     style="display:inline"
     transform="translate(0,-300)" />
  <g
     inkscape:groupmode="layer"
     id="layer2"
     inkscape:label="podstawowa"
     style="display:inline"
     transform="translate(0,-300)" />
  <g
     inkscape:groupmode="layer"
     id="layer5"
     inkscape:label="napisy"
     style="display:inline"
     transform="translate(0,-300)">
    <g
       id="g1461"
       inkscape:label="p4"
       style="display:inline;fill:#000000;fill-opacity:1"
       transform="translate(1.182297,-1.05875)" />
    <g
       style="display:inline;fill:#000000;fill-opacity:1"
       id="g1463"
       transform="translate(1.182297,-1.05875)" />
    <g
       style="display:inline;fill:#000000;fill-opacity:1"
       id="g1465"
       transform="translate(1.182297,-1.05875)" />
    <g
       id="g1467"
       inkscape:label="p3"
       style="display:inline;fill:#000000;fill-opacity:1"
       transform="translate(1.182297,-1.05875)" />
    <g
       id="g1469"
       inkscape:label="p2"
       style="display:inline;fill:#000000;fill-opacity:1"
       transform="translate(1.182297,-1.05875)" />
    <g
       id="g1471"
       inkscape:label="podstawowa"
       style="display:inline;fill:#000000;fill-opacity:1"
       transform="translate(1.182297,-1.05875)" />
    <path
       inkscape:connector-curvature="0"
       id="path2122"
       style="display:inline;fill:none;fill-opacity:1;fill-rule:evenodd;stroke:#ffffff;stroke-width:2;stroke-linecap:square;stroke-linejoin:miter;stroke-miterlimit:4;stroke-dasharray:none;stroke-opacity:0.9375"
       d="m 306.62181,423.21581 v 29.02063 l -0.0141,-0.007 -214.6529,-107.32645 214.667,78.31287" />
    <path
       inkscape:connector-curvature="0"
       id="path5805"
       style="display:inline;fill:#ffffff;fill-opacity:1;fill-rule:evenodd;stroke:#ffffff;stroke-width:2;stroke-linecap:square;stroke-linejoin:miter;stroke-miterlimit:4;stroke-dasharray:none;stroke-opacity:1"
       d="m 247.69666,452.67838 h 58.04127 l -0.0141,-0.007 L 91.070927,345.34489 247.69665,452.67838" />
    <path
       inkscape:connector-curvature="0"
       id="path8724"
       style="display:inline;fill:none;fill-opacity:1;fill-rule:evenodd;stroke:#ffffff;stroke-width:2;stroke-linecap:square;stroke-linejoin:miter;stroke-miterlimit:4;stroke-dasharray:none;stroke-opacity:0.9375"
       d="m 306.62174,482.14097 v -29.02064 l 0.0141,0.007 214.65288,107.32645 -214.667,-78.31287" />
    <path
       inkscape:connector-curvature="0"
       id="path8726"
       style="display:inline;fill:#ffffff;fill-opacity:1;fill-rule:evenodd;stroke:#ffffff;stroke-width:2;stroke-linecap:square;stroke-linejoin:miter;stroke-miterlimit:4;stroke-dasharray:none;stroke-opacity:1"
       d="m 365.54689,452.67839 h -58.04126 l 0.0141,0.007 214.65289,107.32644 -156.62573,-107.3335" />
    <path
       inkscape:connector-curvature="0"
       id="path8740"
       style="display:inline;fill:none;fill-opacity:1;fill-rule:evenodd;stroke:#ffffff;stroke-width:2;stroke-linecap:square;stroke-linejoin:miter;stroke-miterlimit:4;stroke-dasharray:none;stroke-opacity:0.9375"
       d="m 247.69666,452.67837 h 58.04127 l -0.0141,0.007 L 91.070957,560.01186 247.69668,452.67836" />
    <path
       inkscape:connector-curvature="0"
       id="path8742"
       style="display:inline;fill:#ffffff;fill-opacity:1;fill-rule:evenodd;stroke:#ffffff;stroke-width:2;stroke-linecap:square;stroke-linejoin:miter;stroke-miterlimit:4;stroke-dasharray:none;stroke-opacity:1"
       d="m 306.62181,482.14094 v -29.02063 l -0.0141,0.007 -214.6529,107.32644 214.667,-78.31286" />
    <path
       inkscape:connector-curvature="0"
       id="path8746"
       style="display:inline;fill:none;fill-opacity:1;fill-rule:evenodd;stroke:#ffffff;stroke-width:2;stroke-linecap:square;stroke-linejoin:miter;stroke-miterlimit:4;stroke-dasharray:none;stroke-opacity:0.9375"
       d="m 365.54689,452.67837 h -58.04126 l 0.0141,-0.007 214.65291,-107.32646 -156.62573,107.3335" />
    <path
       inkscape:connector-curvature="0"
       id="path8748"
       style="display:inline;fill:#ffffff;fill-opacity:1;fill-rule:evenodd;stroke:#ffffff;stroke-width:2;stroke-linecap:square;stroke-linejoin:miter;stroke-miterlimit:4;stroke-dasharray:none;stroke-opacity:1"
       d="m 306.62174,423.21579 v 29.02063 l 0.0141,-0.007 214.65288,-107.32643 -214.667,78.31286" />
    <path
       d="m 549.61869,313.85616 11.13484,5.56743 -12.45549,20.28876 26.51649,-13.25826 9.45169,4.72584 -38.66126,19.33064 -11.13488,-5.56743 12.45552,-20.28875 -26.51652,13.25825 -9.45167,-4.72584 38.66127,-19.33064"
       style="font-style:normal;font-variant:normal;font-weight:bold;font-stretch:normal;font-size:40px;line-height:125%;font-family:'Bitstream Vera Sans';text-align:start;writing-mode:lr-tb;text-anchor:start;fill:#ffffff;fill-opacity:1;stroke:none;stroke-width:1.32582521px;stroke-linecap:butt;stroke-linejoin:miter;stroke-opacity:1"
       id="path1476"
       inkscape:connector-curvature="0" />
    <path
       d="m 555.73247,557.85561 26.90492,13.45246 -7.53545,3.76772 -16.93534,-8.46767 -7.1988,3.5994 15.92544,7.96272 -7.53546,3.76773 -15.92544,-7.96272 -8.85612,4.42806 17.50504,8.7525 -7.53546,3.76773 -27.4746,-13.7373 38.66127,-19.33063"
       style="font-style:normal;font-variant:normal;font-weight:bold;font-stretch:normal;font-size:40px;line-height:125%;font-family:'Bitstream Vera Sans';text-align:start;writing-mode:lr-tb;text-anchor:start;display:inline;fill:#ffffff;fill-opacity:1;stroke:none;stroke-width:1.32582521px;stroke-linecap:butt;stroke-linejoin:miter;stroke-opacity:1"
       id="path1478"
       inkscape:connector-curvature="0" />
    <path
       d="m 51.644702,307.38485 9.555262,4.77763 -21.415174,17.3885 34.725218,-10.73348 9.60705,4.80353 -21.466969,17.3626 34.777013,-10.70757 9.477578,4.73877 -47.776309,14.77311 -11.497388,-5.74869 22.373306,-18.20421 -36.330727,11.22551 -11.497389,-5.74869 29.468529,-23.92701"
       style="font-style:normal;font-variant:normal;font-weight:bold;font-stretch:normal;font-size:40px;line-height:125%;font-family:'Bitstream Vera Sans';text-align:start;writing-mode:lr-tb;text-anchor:start;display:inline;fill:#ffffff;fill-opacity:1;stroke:none;stroke-width:1.32582521px;stroke-linecap:butt;stroke-linejoin:miter;stroke-opacity:1"
       id="path1480"
       inkscape:connector-curvature="0" />
    <path
       d="m 95.289468,571.17739 -8.182838,4.09141 c -1.173993,-1.53645 -2.52915,-2.93046 -4.065525,-4.18204 -1.536505,-1.2516 -3.202405,-2.32625 -4.997737,-3.22394 -2.382393,-1.19116 -4.471275,-1.90759 -6.266606,-2.14929 -1.795425,-0.24168 -3.383662,-0.0172 -4.764675,0.67328 -1.035862,0.5179 -1.467412,1.11349 -1.294762,1.78674 0.207112,0.67329 1.11345,1.61845 2.718993,2.83552 l 3.392232,2.55065 c 3.435375,2.58088 5.178955,4.7647 5.2308,6.55144 0.05175,1.78676 -1.545113,3.49152 -4.790588,5.11427 -4.264087,2.13202 -8.709375,3.08583 -13.335937,2.8614 -4.592063,-0.22443 -9.486225,-1.63571 -14.68247,-4.23383 -2.45143,-1.22571 -4.67839,-2.57224 -6.680904,-4.03962 -2.002567,-1.46739 -3.780697,-3.04699 -5.334378,-4.7388 l 8.415873,-4.20793 c 1.156622,1.89033 2.546334,3.57783 4.169091,5.06247 1.657275,1.48465 3.556238,2.76213 5.696906,3.83247 2.175169,1.08759 4.2036,1.73926 6.085332,1.95507 1.881693,0.21579 3.495787,-0.0135 4.842355,-0.68622 1.2084,-0.60423 1.743582,-1.26887 1.605488,-1.99392 -0.12075,-0.71642 -1.096218,-1.79106 -2.926125,-3.22392 l -3.003825,-2.35646 c -3.038363,-2.3478 -4.548918,-4.42374 -4.531631,-6.22776 0.0345,-1.79536 1.5882,-3.46128 4.6611,-4.99773 3.849693,-1.92484 8.053313,-2.7837 12.610893,-2.57655 4.557488,0.20718 9.166763,1.47602 13.827938,3.80657 2.123325,1.0617 4.143132,2.23561 6.059457,3.52173 1.933405,1.27749 3.780618,2.67583 5.541543,4.19499"
       style="font-style:normal;font-variant:normal;font-weight:bold;font-stretch:normal;font-size:40px;line-height:125%;font-family:'Bitstream Vera Sans';text-align:start;writing-mode:lr-tb;text-anchor:start;display:inline;fill:#ffffff;fill-opacity:1;stroke:none;stroke-width:1.32582521px;stroke-linecap:butt;stroke-linejoin:miter;stroke-opacity:1"
       id="path1482"
       inkscape:connector-curvature="0" />
  </g>
</svg>
