<?xml version="1.0" encoding="utf-8" ?>
<!DOCTYPE svg PUBLIC "-//W3C//DTD SVG 1.0//EN" "http://www.w3.org/TR/2001/REC-SVG-20010904/DTD/svg10.dtd">
<svg xmlns="http://www.w3.org/2000/svg" xmlns:xlink="http://www.w3.org/1999/xlink" viewBox="-1 0 3 4" width="1920" height="2560" shape-rendering="crispEdges">
	<title>intersection_left_01_both6</title>
	<desc>intersection_left_01_both6</desc>
	<g transform="scale(1,-1)">
		<!--
		<g>
			<rect x="-1" y="-4" width="4" height="4" style="fill:#fff0f0;stroke:none;" />
			<circle cx="0" cy="0" r="0.01" />
			<rect x="0" y="0" width="0.01" height="40" style="fill:#00ff00;stroke:none;" />
			<rect x="0" y="0" width="40" height="0.01" style="fill:#ff0000;stroke:none;" />
		</g>
		-->
		<!-- PLATE -->
		<path d="
			M -0.187500000000000 0.00000000000000
			A 0.894606781186550 0.894606781186550 0 0,1 0.0745242597140701, -0.632582521472479
			L 2.00000000000000, -2.55805826175841
			L 2.00000000000000, -2.57573593128807
			L 0.0656854249492383, -0.641421356237311
			A 0.907106781186550 0.907106781186550 0 0,0 -0.200000000000000, 0.00000000000000
			Z
		" style="fill:#000000;stroke:none;stroke-width:0.01;" />
		<path d="
			M -0.812500000000002, 0.00000000000000
			L -0.800000000000002, 0.00000000000000
			L -0.800000000000002, -4.00000000000000
			L -0.812500000000002, -4.00000000000000
			Z
		" style="fill:#000000;stroke:none;stroke-width:0.01;" />
		<path d="
			M -0.200000000000000, -4.00000000000000
			A 1.14974746830583 1.14974746830583 0 0,0 1.76274169979695, -3.18700576850888
			L 2.00000000000000, -3.42426406871193
			L 2.00000000000000, -3.44194173824160
			L 1.75390286503212, -3.19584460327372
			A 1.13724746830583 1.13724746830583 0 0,1 -0.187500000000000, -4.00000000000000
			Z
		" style="fill:#000000;stroke:none;stroke-width:0.01;" />
		<path d="
			M -0.200000000000000, -1.22426406871193
			L 0.830085020743242, -2.25434908945517
			A 1.74974746830583 1.74974746830583 0 0,1 -0.200000000000000, -2.68102427544439
			L -0.200000000000000, -1.22426406871193
			M -0.187500000000000, -1.25444173824159
			L 0.802014127998668, -2.24395586624026
			A 1.76224746830583 1.76224746830583 0 0,1 -0.187500000000000, -2.65382603821710
			L -0.187500000000000, -1.25444173824159
		" style="fill:#000000;stroke:none;stroke-width:0.01;" fill-rule="evenodd" />
		<path d="
			M -0.52500000000000, 0.00000000000000
			L -0.52500000000000, -4.00000000000000
			L -0.51250000000000, -4.00000000000000
			L -0.51250000000000, 0.00000000000000
			Z
			M -0.48750000000000, 0.00000000000000
			L -0.48750000000000, -4.00000000000000
			L -0.47500000000000, -4.00000000000000
			L -0.47500000000000, 0.00000000000000
			Z
		" style="fill:#000000;stroke:none;stroke-width:0.01;" fill-rule="evenodd" />
		<path d="
			M -0.2, -0.7773304633
			A 1.1946067812 1.1946067812 0 0,1 -0.1376077746, -0.8447145558
			L 2, -2.9823223305
			L 2, -2.9646446609
			L -0.1287689399, -0.8358757211
			A 1.1821067812 1.1821067812 0 0,0 -0.2, -0.7579800325
			Z
			M -0.2, -0.8338131732
			A 1.2321067812 1.2321067812 0 0,1 -0.1641242789, -0.8712310601
			L 2, -3.0353553391
			L 2, -3.0176776695
			L -0.1552854442, -0.8623922254
			A 1.2196067812 1.2196067812 0 0,0 -0.2, -0.815228795
			Z
		" style="fill:#000000;stroke:none;stroke-width:0.01;" fill-rule="evenodd" />
		<path d="
			M -0.2, -3.0965353257
			A 1.4622474683 1.4622474683 0 0,0 1.123895702, -2.5481597708
			L 1.1096870105, -2.5339510792
			A 1.4747474683 1.4747474683 0 0,1 -0.2, -3.0764412014
			Z
			M -0.2, -3.1585808966
			A 1.4247474683 1.4247474683 0 0,0 1.167768546, -2.5920326147
			L 1.1529216262, -2.5771856949
			A 1.4372474683 1.4372474683 0 0,1 -0.2, -3.1375841813
			Z
		" style="fill:#000000;stroke:none;stroke-width:0.01;" fill-rule="evenodd" />
		<!-- STUD -->
		<path d="
			M 0.0000000000, 0.0000000000
			A 0.7071067812 0.7071067812 0 0,1 0.2071067812, -0.5000000000
			L 2.0000000000, -2.2928932188
			L 2.0000000000, -2.5580582618
			L 0.0745242597, -0.6325825215
			A 0.89460678119 0.89460678119 0 0,0 -0.18750000000 0.0000000000
			Z
		" style="fill:#237841;stroke:none;stroke-width:0.01;" />
		<path d="
			M -0.812500000000002, 0.00000000000000
			L -0.812500000000002, -4.00000000000000
			L -1.000000000000000, -4.00000000000000
			L -1.000000000000000, 0.00000000000000
			Z
		" style="fill:#237841;stroke:none;stroke-width:0.01;" />
		<path d="
			M 0.0000000000, -4.0000000000
			A 0.9497474683 0.9497474683 0 0,0 1.6213203436, -3.3284271247
			L 2.0000000000, -3.7071067812
			L 2.0000000000, -3.4419417382
			L 1.753902865, -3.1958446033
			A 1.137247468 1.137247468 0 0,1 -0.1875000000, -4.000000000
			Z
		" style="fill:#237841;stroke:none;stroke-width:0.01;" />
		<path d="
			M -0.1875000000, -1.2544417382
			L 0.802014128, -2.2439558662
			A 1.7622474683 1.7622474683 0 0,1 -0.1875, -2.6538260382
			L -0.1875000000, -1.2544417382
			M 0.0000000000, -1.7071067812
			L 0.4172657483, -2.1243725295
			A 1.9497474683 1.9497474683 0 0,1 0.0000000000, -2.2972096616
			Z
		" style="fill:#237841;stroke:none;stroke-width:0.01;" fill-rule="evenodd" />
	</g>
</svg>
