<?xml version="1.0" encoding="utf-8" ?>
<!DOCTYPE svg PUBLIC "-//W3C//DTD SVG 1.0//EN" "http://www.w3.org/TR/2001/REC-SVG-20010904/DTD/svg10.dtd">
<svg xmlns="http://www.w3.org/2000/svg" xmlns:xlink="http://www.w3.org/1999/xlink" viewBox="-1 0 3 4" width="1920" height="2560" shape-rendering="crispEdges">
	<title>intersection_left_01_stud4</title>
	<desc>intersection_left_01_stud4</desc>
	<g transform="scale(1,-1)">
		<!--
		<g>
			<rect x="-1" y="-4" width="4" height="4" style="fill:#fff0f0;stroke:none;" />
			<circle cx="0" cy="0" r="0.01" />
			<rect x="0" y="0" width="0.01" height="40" style="fill:#00ff00;stroke:none;" />
			<rect x="0" y="0" width="40" height="0.01" style="fill:#ff0000;stroke:none;" />
		</g>
		-->
		<path d="
			M -0.0625000000000002, 0.00000000000000
			A 0.769606781186550 0.769606781186550 0 0,1 0.162912607362389, -0.544194173824161
			L 2.00000000000000, -2.38128156646177
			L 2.00000000000000, -2.55805826175841
			L 0.0745242597140701 -0.632582521472479
			L 0.0745242597140701, -0.632582521472479
			A 0.894606781186550 0.894606781186550 0 0,0 -0.187500000000000 0.00000000000000
			Z
		" style="fill:#000000;stroke:none;stroke-width:0.01;" />
		<path d="
			M -0.812500000000002, 0.00000000000000
			L -0.812500000000002, -4.00000000000000
			L -0.937500000000002, -4.00000000000000
			L -0.937500000000002, 0.00000000000000
			Z
		" style="fill:#000000;stroke:none;stroke-width:0.01;" />
		<path d="
			M -0.0625000000000002, -4.00000000000000
			A 1.01224746830583 1.01224746830583 0 0,0 1.66551451738380, -3.28423295092204
			L 2.00000000000000, -3.61871843353824
			L 2.00000000000000, -3.44194173824160
			L 1.75390286503212, -3.19584460327372
			A 1.13724746830583 1.13724746830583 0 0,1 -0.187500000000000, -4.00000000000000
			Z
		" style="fill:#000000;stroke:none;stroke-width:0.01;" />
		<path d="
			M -0.187500000000000, -1.25444173824159
			L 0.802014127998668, -2.24395586624026
			A 1.76224746830583 1.76224746830583 0 0,1 -0.187500000000000, -2.65382603821710
			L -0.187500000000000, -1.25444173824159
			M -0.0625000000000002, -1.55621843353823
			L 0.539224574799032, -2.15794300833726
			A 1.88724746830583 1.88724746830583 0 0,1 -0.0625000000000002, -2.40718548803221
			L -0.0625000000000002, -1.55621843353823
		" style="fill:#000000;stroke:none;stroke-width:0.01;" fill-rule="evenodd" />
	</g>
</svg>
