<?xml version="1.0" encoding="UTF-8" standalone="no"?>
<svg
   xmlns:dc="http://purl.org/dc/elements/1.1/"
   xmlns:cc="http://creativecommons.org/ns#"
   xmlns:rdf="http://www.w3.org/1999/02/22-rdf-syntax-ns#"
   xmlns:svg="http://www.w3.org/2000/svg"
   xmlns="http://www.w3.org/2000/svg"
   xmlns:sodipodi="http://sodipodi.sourceforge.net/DTD/sodipodi-0.dtd"
   xmlns:inkscape="http://www.inkscape.org/namespaces/inkscape"
   viewBox="-8 -8 16 16"
   width="480px"
   height="480px"
   id="svg2"
   version="1.1"
   inkscape:version="0.91 r13725"
   sodipodi:docname="grid_square_06.svg"
   inkscape:export-filename="D:\Working\LDraw\my_models\povray\grid_square_06.png"
   inkscape:export-xdpi="300"
   inkscape:export-ydpi="300">
  <metadata
     id="metadata20">
    <rdf:RDF>
      <cc:Work
         rdf:about="">
        <dc:format>image/svg+xml</dc:format>
        <dc:type
           rdf:resource="http://purl.org/dc/dcmitype/StillImage" />
      </cc:Work>
    </rdf:RDF>
  </metadata>
  <defs
     id="defs18" />
  <sodipodi:namedview
     pagecolor="#ffffff"
     bordercolor="#666666"
     borderopacity="1"
     objecttolerance="10"
     gridtolerance="10"
     guidetolerance="10"
     inkscape:pageopacity="0"
     inkscape:pageshadow="2"
     inkscape:window-width="1846"
     inkscape:window-height="1051"
     id="namedview16"
     showgrid="false"
     inkscape:zoom="1.3906433"
     inkscape:cx="-41.322411"
     inkscape:cy="251.87511"
     inkscape:window-x="65"
     inkscape:window-y="-9"
     inkscape:window-maximized="1"
     inkscape:current-layer="svg2" />
  <title
     id="title4">Grid Square #3</title>
  <path
     mask="url(#cut-holes)"
     d="M 36 6 C 19.380006 6 6 19.380006 6 36 L 6 444 C 6 460.62 19.380006 474 36 474 L 444 474 C 460.62 474 474 460.62 474 444 L 474 36 C 474 19.380006 460.62 6 444 6 L 36 6 z M 120 48 A 71.999989 71.999989 0 0 1 192 120 A 71.999989 71.999989 0 0 1 120 192 A 71.999989 71.999989 0 0 1 48 120 A 71.999989 71.999989 0 0 1 120 48 z M 360 48 A 71.999982 71.999982 0 0 1 432 120 A 71.999982 71.999982 0 0 1 360 192 A 71.999982 71.999982 0 0 1 288 120 A 71.999982 71.999982 0 0 1 360 48 z M 120 288 A 71.999996 71.999996 0 0 1 192 360 A 71.999996 71.999996 0 0 1 120 432 A 71.999996 71.999996 0 0 1 48 360 A 71.999996 71.999996 0 0 1 120 288 z M 360 288 A 72.000003 72.000003 0 0 1 432 360 A 72.000003 72.000003 0 0 1 360 432 A 72.000003 72.000003 0 0 1 288 360 A 72.000003 72.000003 0 0 1 360 288 z "
     id="rect6"
     transform="matrix(0.03333333,0,0,0.03333333,-8,-8)"
     style="fill:#c0c0c0;stroke:none;fill-opacity:1" />
</svg>
