<?xml version="1.0" encoding="UTF-8" standalone="no"?>
<svg
   xmlns:dc="http://purl.org/dc/elements/1.1/"
   xmlns:cc="http://creativecommons.org/ns#"
   xmlns:rdf="http://www.w3.org/1999/02/22-rdf-syntax-ns#"
   xmlns:svg="http://www.w3.org/2000/svg"
   xmlns="http://www.w3.org/2000/svg"
   xmlns:sodipodi="http://sodipodi.sourceforge.net/DTD/sodipodi-0.dtd"
   xmlns:inkscape="http://www.inkscape.org/namespaces/inkscape"
   viewBox="-60 -36 121 73"
   width="121px"
   height="73px"
   version="1.1"
   id="svg38"
   sodipodi:docname="soccer_field.svg"
   inkscape:export-filename="D:\GitHub\Datsville\helper_scripts\soccer_field\soccer_field.png"
   inkscape:export-xdpi="96"
   inkscape:export-ydpi="96"
   inkscape:version="0.92.4 (5da689c313, 2019-01-14)">
  <metadata
     id="metadata42">
    <rdf:RDF>
      <cc:Work
         rdf:about="">
        <dc:format>image/svg+xml</dc:format>
        <dc:type
           rdf:resource="http://purl.org/dc/dcmitype/StillImage" />
      </cc:Work>
    </rdf:RDF>
  </metadata>
  <sodipodi:namedview
     pagecolor="#ffffff"
     bordercolor="#666666"
     borderopacity="1"
     objecttolerance="10"
     gridtolerance="10"
     guidetolerance="10"
     inkscape:pageopacity="0"
     inkscape:pageshadow="2"
     inkscape:window-width="1842"
     inkscape:window-height="1171"
     id="namedview40"
     showgrid="false"
     inkscape:zoom="3.0495868"
     inkscape:cx="60.5"
     inkscape:cy="36.5"
     inkscape:window-x="69"
     inkscape:window-y="-9"
     inkscape:window-maximized="1"
     inkscape:current-layer="svg38" />
  <title
     id="title2">Soccer Field</title>
  <desc
     id="desc4">Soccer Field</desc>
  <style
     type="text/css"
     id="style6"><![CDATA[
.yel	{fill:none;stroke:#ffff00;stroke-width:0.1;}
.blk	{fill:none;stroke:#000000;stroke-width:1;}
.out	{fill:#c0c0c0;}
	]]></style>
  <defs
     id="defs8" />
  <!--	<rect class="out" x="-80" y="-56" width="160" height="112" />	-->
  <g
     transform="translate(0.5 0.5)"
     id="g36">
    <rect
       class="blk"
       x="-60"
       y="-36"
       width="60"
       height="72"
       id="rect10" />
    <rect
       class="blk"
       x="0"
       y="-36"
       width="60"
       height="72"
       id="rect12" />
    <rect
       class="blk"
       x="-60"
       y="-22"
       width="18"
       height="44"
       id="rect14" />
    <rect
       class="blk"
       x="42"
       y="-22"
       width="18"
       height="44"
       id="rect16" />
    <rect
       class="blk"
       x="-60"
       y="-10"
       width="6"
       height="20"
       id="rect18" />
    <rect
       class="blk"
       x="54"
       y="-10"
       width="6"
       height="20"
       id="rect20" />
    <circle
       class="blk"
       cx="0"
       cy="0"
       r="10"
       id="circle22" />
    <path
       class="blk"
       d="M-42 8 A 10 10 0 0 0 -42 -8"
       id="path24" />
    <path
       class="blk"
       d="M42 8 A 10 10 0 0 1 42 -8"
       id="path26" />
    <path
       class="blk"
       d="M-60 -35 A 1 1 0 0 0 -59 -36"
       id="path28" />
    <path
       class="blk"
       d="M60 -35 A 1 1 0 0 1 59 -36"
       id="path30" />
    <path
       class="blk"
       d="M60 35 A 1 1 0 0 0 59 36"
       id="path32" />
    <path
       class="blk"
       d="M-60 35 A 1 1 0 0 1 -59 36"
       id="path34" />
  </g>
  <!--	<rect class="yel" x="-60" y="-36" width="120" height="72" />	-->
</svg>
